<svg version="1.2" xmlns="http://www.w3.org/2000/svg" viewBox="0 0 512 512" width="512" height="512">
	<style>
		.s0 { fill: none;stroke: #000000;stroke-miterlimit:100;stroke-width: 16 } 
		.s1 { fill: #000000 } 
	</style>
	<path id="Background" fill-rule="evenodd" class="s0" d="m255.5 505c-137.97 0-249.5-111.53-249.5-249.5 0-137.97 111.53-249.5 249.5-249.5 137.97 0 249.5 111.53 249.5 249.5 0 137.97-111.53 249.5-249.5 249.5z"/>
	<path id="Forma 1" fill-rule="evenodd" class="s1" d="m255.5 256c-38.99 0-70.5-31.51-70.5-70.5 0-38.99 31.51-70.5 70.5-70.5 38.99 0 70.5 31.51 70.5 70.5 0 38.99-31.51 70.5-70.5 70.5z"/>
	<path id="Forma 2" fill-rule="evenodd" class="s1" d="m255.5 498c-108.11 0-195.5-50.29-195.5-112.5 0-62.21 87.39-112.5 195.5-112.5 108.11 0 195.5 50.29 195.5 112.5 0 62.21-87.39 112.5-195.5 112.5z"/>
</svg>